<?xml version="1.0" encoding="UTF-8" ?>
<svg version="1.1" width="300" height="200" xmlns="http://www.w3.org/2000/svg" shape-rendering="crispEdges">
<rect x="6" y="5" width="8" height="6" fill="#DFD957" />
<rect x="4" y="6" width="2" height="194" fill="#DFD957" />
<rect x="14" y="6" width="3" height="5" fill="#DFD957" />
<rect x="2" y="7" width="2" height="193" fill="#DFD957" />
<rect x="17" y="7" width="2" height="5" fill="#DFD957" />
<rect x="1" y="8" width="1" height="192" fill="#DFD957" />
<rect x="19" y="8" width="39" height="5" fill="#DFD957" />
<rect x="66" y="8" width="13" height="10" fill="#DFD957" />
<rect x="0" y="9" width="1" height="191" fill="#DFD957" />
<rect x="58" y="9" width="2" height="10" fill="#DFD957" />
<rect x="64" y="9" width="2" height="10" fill="#DFD957" />
<rect x="79" y="9" width="61" height="9" fill="#DFD957" />
<rect x="60" y="10" width="4" height="9" fill="#DFD957" />
<rect x="140" y="10" width="9" height="9" fill="#DFD957" />
<rect x="6" y="11" width="6" height="1" fill="#DFD957" />
<rect x="12" y="11" width="5" height="187" fill="#323C39" />
<rect x="149" y="11" width="124" height="6" fill="#DFD957" />
<rect x="6" y="12" width="4" height="1" fill="#DFD957" />
<rect x="10" y="12" width="2" height="185" fill="#323C39" />
<rect x="17" y="12" width="2" height="186" fill="#323C39" />
<rect x="273" y="12" width="2" height="8" fill="#DFD957" />
<rect x="6" y="13" width="3" height="1" fill="#DFD957" />
<rect x="9" y="13" width="1" height="184" fill="#323C39" />
<rect x="19" y="13" width="1" height="185" fill="#323C39" />
<rect x="20" y="13" width="38" height="1" fill="#DFD957" />
<rect x="275" y="13" width="1" height="7" fill="#DFD957" />
<rect x="6" y="14" width="2" height="2" fill="#DFD957" />
<rect x="8" y="14" width="1" height="182" fill="#323C39" />
<rect x="20" y="14" width="2" height="67" fill="#323C39" />
<rect x="22" y="14" width="36" height="1" fill="#DFD957" />
<rect x="276" y="14" width="1" height="6" fill="#DFD957" />
<rect x="22" y="15" width="2" height="16" fill="#323C39" />
<rect x="24" y="15" width="34" height="1" fill="#DFD957" />
<rect x="277" y="15" width="4" height="5" fill="#DFD957" />
<rect x="6" y="16" width="1" height="61" fill="#DFD957" />
<rect x="7" y="16" width="1" height="179" fill="#323C39" />
<rect x="24" y="16" width="6" height="15" fill="#323C39" />
<rect x="30" y="16" width="28" height="1" fill="#DFD957" />
<rect x="281" y="16" width="2" height="4" fill="#DFD957" />
<rect x="30" y="17" width="2" height="16" fill="#323C39" />
<rect x="32" y="17" width="26" height="1" fill="#DFD957" />
<rect x="149" y="17" width="24" height="1" fill="#DFD957" />
<rect x="173" y="17" width="80" height="15" fill="#323C39" />
<rect x="253" y="17" width="20" height="1" fill="#DFD957" />
<rect x="283" y="17" width="6" height="4" fill="#DFD957" />
<rect x="32" y="18" width="22" height="15" fill="#323C39" />
<rect x="54" y="18" width="4" height="1" fill="#DFD957" />
<rect x="66" y="18" width="5" height="1" fill="#DFD957" />
<rect x="71" y="18" width="63" height="15" fill="#323C39" />
<rect x="134" y="18" width="6" height="1" fill="#DFD957" />
<rect x="149" y="18" width="11" height="1" fill="#DFD957" />
<rect x="160" y="18" width="13" height="15" fill="#323C39" />
<rect x="253" y="18" width="14" height="15" fill="#323C39" />
<rect x="267" y="18" width="6" height="1" fill="#DFD957" />
<rect x="289" y="18" width="4" height="10" fill="#DFD957" />
<rect x="54" y="19" width="17" height="15" fill="#323C39" />
<rect x="134" y="19" width="26" height="15" fill="#323C39" />
<rect x="267" y="19" width="4" height="16" fill="#323C39" />
<rect x="271" y="19" width="2" height="1" fill="#DFD957" />
<rect x="293" y="19" width="2" height="90" fill="#DFD957" />
<rect x="271" y="20" width="11" height="15" fill="#323C39" />
<rect x="282" y="20" width="1" height="1" fill="#DFD957" />
<rect x="295" y="20" width="2" height="162" fill="#DFD957" />
<rect x="282" y="21" width="2" height="166" fill="#323C39" />
<rect x="284" y="21" width="5" height="1" fill="#DFD957" />
<rect x="297" y="21" width="1" height="160" fill="#DFD957" />
<rect x="284" y="22" width="2" height="165" fill="#323C39" />
<rect x="286" y="22" width="3" height="1" fill="#DFD957" />
<rect x="298" y="22" width="2" height="155" fill="#DFD957" />
<rect x="286" y="23" width="1" height="163" fill="#323C39" />
<rect x="287" y="23" width="2" height="1" fill="#DFD957" />
<rect x="287" y="24" width="1" height="162" fill="#323C39" />
<rect x="288" y="24" width="1" height="2" fill="#DFD957" />
<rect x="288" y="26" width="1" height="159" fill="#323C39" />
<rect x="289" y="28" width="1" height="157" fill="#323C39" />
<rect x="290" y="28" width="3" height="10" fill="#DFD957" />
<rect x="22" y="31" width="4" height="152" fill="#929292" />
<rect x="26" y="31" width="4" height="1" fill="#323C39" />
<rect x="26" y="32" width="2" height="151" fill="#929292" />
<rect x="28" y="32" width="2" height="1" fill="#323C39" />
<rect x="173" y="32" width="4" height="1" fill="#323C39" />
<rect x="177" y="32" width="72" height="144" fill="#929292" />
<rect x="249" y="32" width="4" height="1" fill="#323C39" />
<rect x="28" y="33" width="22" height="150" fill="#929292" />
<rect x="50" y="33" width="4" height="1" fill="#323C39" />
<rect x="71" y="33" width="4" height="1" fill="#323C39" />
<rect x="75" y="33" width="55" height="147" fill="#929292" />
<rect x="130" y="33" width="4" height="1" fill="#323C39" />
<rect x="160" y="33" width="4" height="1" fill="#323C39" />
<rect x="164" y="33" width="13" height="144" fill="#929292" />
<rect x="249" y="33" width="14" height="143" fill="#929292" />
<rect x="263" y="33" width="4" height="1" fill="#323C39" />
<rect x="50" y="34" width="25" height="149" fill="#929292" />
<rect x="130" y="34" width="34" height="143" fill="#929292" />
<rect x="263" y="34" width="4" height="141" fill="#929292" />
<rect x="267" y="35" width="8" height="139" fill="#929292" />
<rect x="275" y="35" width="7" height="10" fill="#323C39" />
<rect x="292" y="38" width="1" height="40" fill="#DFD957" />
<rect x="291" y="39" width="1" height="3" fill="#DFD957" />
<rect x="290" y="40" width="1" height="144" fill="#323C39" />
<rect x="291" y="42" width="1" height="141" fill="#323C39" />
<rect x="275" y="45" width="1" height="129" fill="#929292" />
<rect x="276" y="45" width="6" height="2" fill="#323C39" />
<rect x="276" y="47" width="1" height="126" fill="#929292" />
<rect x="277" y="47" width="5" height="35" fill="#323C39" />
<rect x="6" y="77" width="1" height="116" fill="#323C39" />
<rect x="292" y="78" width="1" height="103" fill="#323C39" />
<rect x="20" y="81" width="1" height="117" fill="#323C39" />
<rect x="21" y="81" width="1" height="102" fill="#929292" />
<rect x="277" y="82" width="1" height="91" fill="#929292" />
<rect x="278" y="82" width="4" height="31" fill="#323C39" />
<rect x="293" y="109" width="1" height="70" fill="#323C39" />
<rect x="294" y="109" width="1" height="76" fill="#DFD957" />
<rect x="278" y="113" width="1" height="59" fill="#929292" />
<rect x="279" y="113" width="3" height="75" fill="#323C39" />
<rect x="278" y="172" width="1" height="17" fill="#323C39" />
<rect x="276" y="173" width="2" height="17" fill="#323C39" />
<rect x="267" y="174" width="7" height="1" fill="#929292" />
<rect x="274" y="174" width="2" height="16" fill="#323C39" />
<rect x="263" y="175" width="2" height="1" fill="#929292" />
<rect x="265" y="175" width="9" height="15" fill="#323C39" />
<rect x="177" y="176" width="59" height="1" fill="#929292" />
<rect x="236" y="176" width="29" height="15" fill="#323C39" />
<rect x="130" y="177" width="5" height="1" fill="#929292" />
<rect x="135" y="177" width="101" height="15" fill="#323C39" />
<rect x="298" y="177" width="1" height="2" fill="#DFD957" />
<rect x="130" y="178" width="3" height="1" fill="#929292" />
<rect x="133" y="178" width="2" height="17" fill="#323C39" />
<rect x="130" y="179" width="1" height="1" fill="#929292" />
<rect x="131" y="179" width="2" height="17" fill="#323C39" />
<rect x="293" y="179" width="1" height="8" fill="#DFD957" />
<rect x="75" y="180" width="54" height="1" fill="#929292" />
<rect x="129" y="180" width="2" height="16" fill="#323C39" />
<rect x="75" y="181" width="46" height="1" fill="#929292" />
<rect x="121" y="181" width="8" height="15" fill="#323C39" />
<rect x="292" y="181" width="1" height="8" fill="#DFD957" />
<rect x="75" y="182" width="41" height="1" fill="#929292" />
<rect x="116" y="182" width="5" height="15" fill="#323C39" />
<rect x="295" y="182" width="1" height="2" fill="#DFD957" />
<rect x="21" y="183" width="95" height="15" fill="#323C39" />
<rect x="291" y="183" width="1" height="10" fill="#DFD957" />
<rect x="290" y="184" width="1" height="11" fill="#DFD957" />
<rect x="288" y="185" width="2" height="11" fill="#DFD957" />
<rect x="286" y="186" width="2" height="11" fill="#DFD957" />
<rect x="282" y="187" width="1" height="1" fill="#323C39" />
<rect x="283" y="187" width="3" height="11" fill="#DFD957" />
<rect x="279" y="188" width="2" height="1" fill="#323C39" />
<rect x="281" y="188" width="2" height="10" fill="#DFD957" />
<rect x="278" y="189" width="3" height="10" fill="#DFD957" />
<rect x="265" y="190" width="4" height="1" fill="#323C39" />
<rect x="269" y="190" width="9" height="10" fill="#DFD957" />
<rect x="236" y="191" width="4" height="1" fill="#323C39" />
<rect x="256" y="191" width="13" height="9" fill="#DFD957" />
<rect x="135" y="192" width="5" height="1" fill="#323C39" />
<rect x="140" y="192" width="116" height="8" fill="#DFD957" />
<rect x="6" y="193" width="1" height="7" fill="#DFD957" />
<rect x="135" y="193" width="4" height="1" fill="#323C39" />
<rect x="139" y="193" width="1" height="7" fill="#DFD957" />
<rect x="135" y="194" width="2" height="1" fill="#323C39" />
<rect x="137" y="194" width="2" height="6" fill="#DFD957" />
<rect x="7" y="195" width="1" height="5" fill="#DFD957" />
<rect x="133" y="195" width="4" height="5" fill="#DFD957" />
<rect x="8" y="196" width="1" height="4" fill="#DFD957" />
<rect x="121" y="196" width="4" height="1" fill="#323C39" />
<rect x="125" y="196" width="8" height="4" fill="#DFD957" />
<rect x="288" y="196" width="1" height="1" fill="#DFD957" />
<rect x="9" y="197" width="2" height="3" fill="#DFD957" />
<rect x="11" y="197" width="1" height="1" fill="#323C39" />
<rect x="116" y="197" width="4" height="1" fill="#323C39" />
<rect x="120" y="197" width="5" height="3" fill="#DFD957" />
<rect x="286" y="197" width="1" height="1" fill="#DFD957" />
<rect x="11" y="198" width="109" height="2" fill="#DFD957" />
<rect x="281" y="198" width="1" height="1" fill="#DFD957" />
<rect x="278" y="199" width="2" height="1" fill="#DFD957" />
</svg>